<?xml version="1.0" encoding="UTF-8"?>
<svg xmlns="http://www.w3.org/2000/svg" xmlns:xlink="http://www.w3.org/1999/xlink"
     width="297" height="420" viewBox="0 0 297 420">
<defs>
</defs>
<rect x="0.0" y="0.0" width="21.214285714285715" height="21.214285714285715" fill="none" />
<rect x="0.0" y="21.214285714285715" width="21.214285714285715" height="21.214285714285715" fill="black" />
<rect x="0.0" y="42.42857142857143" width="21.214285714285715" height="21.214285714285715" fill="none" />
<rect x="0.0" y="63.642857142857146" width="21.214285714285715" height="21.214285714285715" fill="black" />
<rect x="0.0" y="84.85714285714286" width="21.214285714285715" height="21.214285714285715" fill="none" />
<rect x="0.0" y="106.07142857142858" width="21.214285714285715" height="21.214285714285715" fill="black" />
<rect x="0.0" y="127.28571428571429" width="21.214285714285715" height="21.214285714285715" fill="none" />
<rect x="0.0" y="148.5" width="21.214285714285715" height="21.214285714285715" fill="black" />
<rect x="0.0" y="169.71428571428572" width="21.214285714285715" height="21.214285714285715" fill="none" />
<rect x="0.0" y="190.92857142857144" width="21.214285714285715" height="21.214285714285715" fill="black" />
<rect x="0.0" y="212.14285714285717" width="21.214285714285715" height="21.214285714285715" fill="none" />
<rect x="0.0" y="233.35714285714286" width="21.214285714285715" height="21.214285714285715" fill="black" />
<rect x="0.0" y="254.57142857142858" width="21.214285714285715" height="21.214285714285715" fill="none" />
<rect x="0.0" y="275.7857142857143" width="21.214285714285715" height="21.214285714285715" fill="black" />
<rect x="0.0" y="297.0" width="21.214285714285715" height="21.214285714285715" fill="none" />
<rect x="0.0" y="318.2142857142857" width="21.214285714285715" height="21.214285714285715" fill="black" />
<rect x="0.0" y="339.42857142857144" width="21.214285714285715" height="21.214285714285715" fill="none" />
<rect x="0.0" y="360.64285714285717" width="21.214285714285715" height="21.214285714285715" fill="black" />
<rect x="0.0" y="381.8571428571429" width="21.214285714285715" height="21.214285714285715" fill="none" />
<rect x="21.214285714285715" y="0.0" width="21.214285714285715" height="21.214285714285715" fill="black" />
<rect x="21.214285714285715" y="21.214285714285715" width="21.214285714285715" height="21.214285714285715" fill="none" />
<rect x="21.214285714285715" y="42.42857142857143" width="21.214285714285715" height="21.214285714285715" fill="black" />
<rect x="21.214285714285715" y="63.642857142857146" width="21.214285714285715" height="21.214285714285715" fill="none" />
<rect x="21.214285714285715" y="84.85714285714286" width="21.214285714285715" height="21.214285714285715" fill="black" />
<rect x="21.214285714285715" y="106.07142857142858" width="21.214285714285715" height="21.214285714285715" fill="none" />
<rect x="21.214285714285715" y="127.28571428571429" width="21.214285714285715" height="21.214285714285715" fill="black" />
<rect x="21.214285714285715" y="148.5" width="21.214285714285715" height="21.214285714285715" fill="none" />
<rect x="21.214285714285715" y="169.71428571428572" width="21.214285714285715" height="21.214285714285715" fill="black" />
<rect x="21.214285714285715" y="190.92857142857144" width="21.214285714285715" height="21.214285714285715" fill="none" />
<rect x="21.214285714285715" y="212.14285714285717" width="21.214285714285715" height="21.214285714285715" fill="black" />
<rect x="21.214285714285715" y="233.35714285714286" width="21.214285714285715" height="21.214285714285715" fill="none" />
<rect x="21.214285714285715" y="254.57142857142858" width="21.214285714285715" height="21.214285714285715" fill="black" />
<rect x="21.214285714285715" y="275.7857142857143" width="21.214285714285715" height="21.214285714285715" fill="none" />
<rect x="21.214285714285715" y="297.0" width="21.214285714285715" height="21.214285714285715" fill="black" />
<rect x="21.214285714285715" y="318.2142857142857" width="21.214285714285715" height="21.214285714285715" fill="none" />
<rect x="21.214285714285715" y="339.42857142857144" width="21.214285714285715" height="21.214285714285715" fill="black" />
<rect x="21.214285714285715" y="360.64285714285717" width="21.214285714285715" height="21.214285714285715" fill="none" />
<rect x="21.214285714285715" y="381.8571428571429" width="21.214285714285715" height="21.214285714285715" fill="black" />
<rect x="42.42857142857143" y="0.0" width="21.214285714285715" height="21.214285714285715" fill="none" />
<rect x="42.42857142857143" y="21.214285714285715" width="21.214285714285715" height="21.214285714285715" fill="black" />
<rect x="42.42857142857143" y="42.42857142857143" width="21.214285714285715" height="21.214285714285715" fill="none" />
<rect x="42.42857142857143" y="63.642857142857146" width="21.214285714285715" height="21.214285714285715" fill="black" />
<rect x="42.42857142857143" y="84.85714285714286" width="21.214285714285715" height="21.214285714285715" fill="none" />
<rect x="42.42857142857143" y="106.07142857142858" width="21.214285714285715" height="21.214285714285715" fill="black" />
<rect x="42.42857142857143" y="127.28571428571429" width="21.214285714285715" height="21.214285714285715" fill="none" />
<rect x="42.42857142857143" y="148.5" width="21.214285714285715" height="21.214285714285715" fill="black" />
<rect x="42.42857142857143" y="169.71428571428572" width="21.214285714285715" height="21.214285714285715" fill="none" />
<rect x="42.42857142857143" y="190.92857142857144" width="21.214285714285715" height="21.214285714285715" fill="black" />
<rect x="42.42857142857143" y="212.14285714285717" width="21.214285714285715" height="21.214285714285715" fill="none" />
<rect x="42.42857142857143" y="233.35714285714286" width="21.214285714285715" height="21.214285714285715" fill="black" />
<rect x="42.42857142857143" y="254.57142857142858" width="21.214285714285715" height="21.214285714285715" fill="none" />
<rect x="42.42857142857143" y="275.7857142857143" width="21.214285714285715" height="21.214285714285715" fill="black" />
<rect x="42.42857142857143" y="297.0" width="21.214285714285715" height="21.214285714285715" fill="none" />
<rect x="42.42857142857143" y="318.2142857142857" width="21.214285714285715" height="21.214285714285715" fill="black" />
<rect x="42.42857142857143" y="339.42857142857144" width="21.214285714285715" height="21.214285714285715" fill="none" />
<rect x="42.42857142857143" y="360.64285714285717" width="21.214285714285715" height="21.214285714285715" fill="black" />
<rect x="42.42857142857143" y="381.8571428571429" width="21.214285714285715" height="21.214285714285715" fill="none" />
<rect x="63.642857142857146" y="0.0" width="21.214285714285715" height="21.214285714285715" fill="black" />
<rect x="63.642857142857146" y="21.214285714285715" width="21.214285714285715" height="21.214285714285715" fill="none" />
<rect x="63.642857142857146" y="42.42857142857143" width="21.214285714285715" height="21.214285714285715" fill="black" />
<rect x="63.642857142857146" y="63.642857142857146" width="21.214285714285715" height="21.214285714285715" fill="none" />
<rect x="63.642857142857146" y="84.85714285714286" width="21.214285714285715" height="21.214285714285715" fill="black" />
<rect x="63.642857142857146" y="106.07142857142858" width="21.214285714285715" height="21.214285714285715" fill="none" />
<rect x="63.642857142857146" y="127.28571428571429" width="21.214285714285715" height="21.214285714285715" fill="black" />
<rect x="63.642857142857146" y="148.5" width="21.214285714285715" height="21.214285714285715" fill="none" />
<rect x="63.642857142857146" y="169.71428571428572" width="21.214285714285715" height="21.214285714285715" fill="black" />
<rect x="63.642857142857146" y="190.92857142857144" width="21.214285714285715" height="21.214285714285715" fill="none" />
<rect x="63.642857142857146" y="212.14285714285717" width="21.214285714285715" height="21.214285714285715" fill="black" />
<rect x="63.642857142857146" y="233.35714285714286" width="21.214285714285715" height="21.214285714285715" fill="none" />
<rect x="63.642857142857146" y="254.57142857142858" width="21.214285714285715" height="21.214285714285715" fill="black" />
<rect x="63.642857142857146" y="275.7857142857143" width="21.214285714285715" height="21.214285714285715" fill="none" />
<rect x="63.642857142857146" y="297.0" width="21.214285714285715" height="21.214285714285715" fill="black" />
<rect x="63.642857142857146" y="318.2142857142857" width="21.214285714285715" height="21.214285714285715" fill="none" />
<rect x="63.642857142857146" y="339.42857142857144" width="21.214285714285715" height="21.214285714285715" fill="black" />
<rect x="63.642857142857146" y="360.64285714285717" width="21.214285714285715" height="21.214285714285715" fill="none" />
<rect x="63.642857142857146" y="381.8571428571429" width="21.214285714285715" height="21.214285714285715" fill="black" />
<rect x="84.85714285714286" y="0.0" width="21.214285714285715" height="21.214285714285715" fill="none" />
<rect x="84.85714285714286" y="21.214285714285715" width="21.214285714285715" height="21.214285714285715" fill="black" />
<rect x="84.85714285714286" y="42.42857142857143" width="21.214285714285715" height="21.214285714285715" fill="none" />
<rect x="84.85714285714286" y="63.642857142857146" width="21.214285714285715" height="21.214285714285715" fill="black" />
<rect x="84.85714285714286" y="84.85714285714286" width="21.214285714285715" height="21.214285714285715" fill="none" />
<rect x="84.85714285714286" y="106.07142857142858" width="21.214285714285715" height="21.214285714285715" fill="black" />
<rect x="84.85714285714286" y="127.28571428571429" width="21.214285714285715" height="21.214285714285715" fill="none" />
<rect x="84.85714285714286" y="148.5" width="21.214285714285715" height="21.214285714285715" fill="black" />
<rect x="84.85714285714286" y="169.71428571428572" width="21.214285714285715" height="21.214285714285715" fill="none" />
<rect x="84.85714285714286" y="190.92857142857144" width="21.214285714285715" height="21.214285714285715" fill="black" />
<rect x="84.85714285714286" y="212.14285714285717" width="21.214285714285715" height="21.214285714285715" fill="none" />
<rect x="84.85714285714286" y="233.35714285714286" width="21.214285714285715" height="21.214285714285715" fill="black" />
<rect x="84.85714285714286" y="254.57142857142858" width="21.214285714285715" height="21.214285714285715" fill="none" />
<rect x="84.85714285714286" y="275.7857142857143" width="21.214285714285715" height="21.214285714285715" fill="black" />
<rect x="84.85714285714286" y="297.0" width="21.214285714285715" height="21.214285714285715" fill="none" />
<rect x="84.85714285714286" y="318.2142857142857" width="21.214285714285715" height="21.214285714285715" fill="black" />
<rect x="84.85714285714286" y="339.42857142857144" width="21.214285714285715" height="21.214285714285715" fill="none" />
<rect x="84.85714285714286" y="360.64285714285717" width="21.214285714285715" height="21.214285714285715" fill="black" />
<rect x="84.85714285714286" y="381.8571428571429" width="21.214285714285715" height="21.214285714285715" fill="none" />
<rect x="106.07142857142858" y="0.0" width="21.214285714285715" height="21.214285714285715" fill="black" />
<rect x="106.07142857142858" y="21.214285714285715" width="21.214285714285715" height="21.214285714285715" fill="none" />
<rect x="106.07142857142858" y="42.42857142857143" width="21.214285714285715" height="21.214285714285715" fill="black" />
<rect x="106.07142857142858" y="63.642857142857146" width="21.214285714285715" height="21.214285714285715" fill="none" />
<rect x="106.07142857142858" y="84.85714285714286" width="21.214285714285715" height="21.214285714285715" fill="black" />
<rect x="106.07142857142858" y="106.07142857142858" width="21.214285714285715" height="21.214285714285715" fill="none" />
<rect x="106.07142857142858" y="127.28571428571429" width="21.214285714285715" height="21.214285714285715" fill="black" />
<rect x="106.07142857142858" y="148.5" width="21.214285714285715" height="21.214285714285715" fill="none" />
<rect x="106.07142857142858" y="169.71428571428572" width="21.214285714285715" height="21.214285714285715" fill="black" />
<rect x="106.07142857142858" y="190.92857142857144" width="21.214285714285715" height="21.214285714285715" fill="none" />
<rect x="106.07142857142858" y="212.14285714285717" width="21.214285714285715" height="21.214285714285715" fill="black" />
<rect x="106.07142857142858" y="233.35714285714286" width="21.214285714285715" height="21.214285714285715" fill="none" />
<rect x="106.07142857142858" y="254.57142857142858" width="21.214285714285715" height="21.214285714285715" fill="black" />
<rect x="106.07142857142858" y="275.7857142857143" width="21.214285714285715" height="21.214285714285715" fill="none" />
<rect x="106.07142857142858" y="297.0" width="21.214285714285715" height="21.214285714285715" fill="black" />
<rect x="106.07142857142858" y="318.2142857142857" width="21.214285714285715" height="21.214285714285715" fill="none" />
<rect x="106.07142857142858" y="339.42857142857144" width="21.214285714285715" height="21.214285714285715" fill="black" />
<rect x="106.07142857142858" y="360.64285714285717" width="21.214285714285715" height="21.214285714285715" fill="none" />
<rect x="106.07142857142858" y="381.8571428571429" width="21.214285714285715" height="21.214285714285715" fill="black" />
<rect x="127.28571428571429" y="0.0" width="21.214285714285715" height="21.214285714285715" fill="none" />
<rect x="127.28571428571429" y="21.214285714285715" width="21.214285714285715" height="21.214285714285715" fill="black" />
<rect x="127.28571428571429" y="42.42857142857143" width="21.214285714285715" height="21.214285714285715" fill="none" />
<rect x="127.28571428571429" y="63.642857142857146" width="21.214285714285715" height="21.214285714285715" fill="black" />
<rect x="127.28571428571429" y="84.85714285714286" width="21.214285714285715" height="21.214285714285715" fill="none" />
<rect x="127.28571428571429" y="106.07142857142858" width="21.214285714285715" height="21.214285714285715" fill="black" />
<rect x="127.28571428571429" y="127.28571428571429" width="21.214285714285715" height="21.214285714285715" fill="none" />
<rect x="127.28571428571429" y="148.5" width="21.214285714285715" height="21.214285714285715" fill="black" />
<rect x="127.28571428571429" y="169.71428571428572" width="21.214285714285715" height="21.214285714285715" fill="none" />
<rect x="127.28571428571429" y="190.92857142857144" width="21.214285714285715" height="21.214285714285715" fill="black" />
<rect x="127.28571428571429" y="212.14285714285717" width="21.214285714285715" height="21.214285714285715" fill="none" />
<rect x="127.28571428571429" y="233.35714285714286" width="21.214285714285715" height="21.214285714285715" fill="black" />
<rect x="127.28571428571429" y="254.57142857142858" width="21.214285714285715" height="21.214285714285715" fill="none" />
<rect x="127.28571428571429" y="275.7857142857143" width="21.214285714285715" height="21.214285714285715" fill="black" />
<rect x="127.28571428571429" y="297.0" width="21.214285714285715" height="21.214285714285715" fill="none" />
<rect x="127.28571428571429" y="318.2142857142857" width="21.214285714285715" height="21.214285714285715" fill="black" />
<rect x="127.28571428571429" y="339.42857142857144" width="21.214285714285715" height="21.214285714285715" fill="none" />
<rect x="127.28571428571429" y="360.64285714285717" width="21.214285714285715" height="21.214285714285715" fill="black" />
<rect x="127.28571428571429" y="381.8571428571429" width="21.214285714285715" height="21.214285714285715" fill="none" />
<rect x="148.5" y="0.0" width="21.214285714285715" height="21.214285714285715" fill="black" />
<rect x="148.5" y="21.214285714285715" width="21.214285714285715" height="21.214285714285715" fill="none" />
<rect x="148.5" y="42.42857142857143" width="21.214285714285715" height="21.214285714285715" fill="black" />
<rect x="148.5" y="63.642857142857146" width="21.214285714285715" height="21.214285714285715" fill="none" />
<rect x="148.5" y="84.85714285714286" width="21.214285714285715" height="21.214285714285715" fill="black" />
<rect x="148.5" y="106.07142857142858" width="21.214285714285715" height="21.214285714285715" fill="none" />
<rect x="148.5" y="127.28571428571429" width="21.214285714285715" height="21.214285714285715" fill="black" />
<rect x="148.5" y="148.5" width="21.214285714285715" height="21.214285714285715" fill="none" />
<rect x="148.5" y="169.71428571428572" width="21.214285714285715" height="21.214285714285715" fill="black" />
<rect x="148.5" y="190.92857142857144" width="21.214285714285715" height="21.214285714285715" fill="none" />
<rect x="148.5" y="212.14285714285717" width="21.214285714285715" height="21.214285714285715" fill="black" />
<rect x="148.5" y="233.35714285714286" width="21.214285714285715" height="21.214285714285715" fill="none" />
<rect x="148.5" y="254.57142857142858" width="21.214285714285715" height="21.214285714285715" fill="black" />
<rect x="148.5" y="275.7857142857143" width="21.214285714285715" height="21.214285714285715" fill="none" />
<rect x="148.5" y="297.0" width="21.214285714285715" height="21.214285714285715" fill="black" />
<rect x="148.5" y="318.2142857142857" width="21.214285714285715" height="21.214285714285715" fill="none" />
<rect x="148.5" y="339.42857142857144" width="21.214285714285715" height="21.214285714285715" fill="black" />
<rect x="148.5" y="360.64285714285717" width="21.214285714285715" height="21.214285714285715" fill="none" />
<rect x="148.5" y="381.8571428571429" width="21.214285714285715" height="21.214285714285715" fill="black" />
<rect x="169.71428571428572" y="0.0" width="21.214285714285715" height="21.214285714285715" fill="none" />
<rect x="169.71428571428572" y="21.214285714285715" width="21.214285714285715" height="21.214285714285715" fill="black" />
<rect x="169.71428571428572" y="42.42857142857143" width="21.214285714285715" height="21.214285714285715" fill="none" />
<rect x="169.71428571428572" y="63.642857142857146" width="21.214285714285715" height="21.214285714285715" fill="black" />
<rect x="169.71428571428572" y="84.85714285714286" width="21.214285714285715" height="21.214285714285715" fill="none" />
<rect x="169.71428571428572" y="106.07142857142858" width="21.214285714285715" height="21.214285714285715" fill="black" />
<rect x="169.71428571428572" y="127.28571428571429" width="21.214285714285715" height="21.214285714285715" fill="none" />
<rect x="169.71428571428572" y="148.5" width="21.214285714285715" height="21.214285714285715" fill="black" />
<rect x="169.71428571428572" y="169.71428571428572" width="21.214285714285715" height="21.214285714285715" fill="none" />
<rect x="169.71428571428572" y="190.92857142857144" width="21.214285714285715" height="21.214285714285715" fill="black" />
<rect x="169.71428571428572" y="212.14285714285717" width="21.214285714285715" height="21.214285714285715" fill="none" />
<rect x="169.71428571428572" y="233.35714285714286" width="21.214285714285715" height="21.214285714285715" fill="black" />
<rect x="169.71428571428572" y="254.57142857142858" width="21.214285714285715" height="21.214285714285715" fill="none" />
<rect x="169.71428571428572" y="275.7857142857143" width="21.214285714285715" height="21.214285714285715" fill="black" />
<rect x="169.71428571428572" y="297.0" width="21.214285714285715" height="21.214285714285715" fill="none" />
<rect x="169.71428571428572" y="318.2142857142857" width="21.214285714285715" height="21.214285714285715" fill="black" />
<rect x="169.71428571428572" y="339.42857142857144" width="21.214285714285715" height="21.214285714285715" fill="none" />
<rect x="169.71428571428572" y="360.64285714285717" width="21.214285714285715" height="21.214285714285715" fill="black" />
<rect x="169.71428571428572" y="381.8571428571429" width="21.214285714285715" height="21.214285714285715" fill="none" />
<rect x="190.92857142857144" y="0.0" width="21.214285714285715" height="21.214285714285715" fill="black" />
<rect x="190.92857142857144" y="21.214285714285715" width="21.214285714285715" height="21.214285714285715" fill="none" />
<rect x="190.92857142857144" y="42.42857142857143" width="21.214285714285715" height="21.214285714285715" fill="black" />
<rect x="190.92857142857144" y="63.642857142857146" width="21.214285714285715" height="21.214285714285715" fill="none" />
<rect x="190.92857142857144" y="84.85714285714286" width="21.214285714285715" height="21.214285714285715" fill="black" />
<rect x="190.92857142857144" y="106.07142857142858" width="21.214285714285715" height="21.214285714285715" fill="none" />
<rect x="190.92857142857144" y="127.28571428571429" width="21.214285714285715" height="21.214285714285715" fill="black" />
<rect x="190.92857142857144" y="148.5" width="21.214285714285715" height="21.214285714285715" fill="none" />
<rect x="190.92857142857144" y="169.71428571428572" width="21.214285714285715" height="21.214285714285715" fill="black" />
<rect x="190.92857142857144" y="190.92857142857144" width="21.214285714285715" height="21.214285714285715" fill="none" />
<rect x="190.92857142857144" y="212.14285714285717" width="21.214285714285715" height="21.214285714285715" fill="black" />
<rect x="190.92857142857144" y="233.35714285714286" width="21.214285714285715" height="21.214285714285715" fill="none" />
<rect x="190.92857142857144" y="254.57142857142858" width="21.214285714285715" height="21.214285714285715" fill="black" />
<rect x="190.92857142857144" y="275.7857142857143" width="21.214285714285715" height="21.214285714285715" fill="none" />
<rect x="190.92857142857144" y="297.0" width="21.214285714285715" height="21.214285714285715" fill="black" />
<rect x="190.92857142857144" y="318.2142857142857" width="21.214285714285715" height="21.214285714285715" fill="none" />
<rect x="190.92857142857144" y="339.42857142857144" width="21.214285714285715" height="21.214285714285715" fill="black" />
<rect x="190.92857142857144" y="360.64285714285717" width="21.214285714285715" height="21.214285714285715" fill="none" />
<rect x="190.92857142857144" y="381.8571428571429" width="21.214285714285715" height="21.214285714285715" fill="black" />
<rect x="212.14285714285717" y="0.0" width="21.214285714285715" height="21.214285714285715" fill="none" />
<rect x="212.14285714285717" y="21.214285714285715" width="21.214285714285715" height="21.214285714285715" fill="black" />
<rect x="212.14285714285717" y="42.42857142857143" width="21.214285714285715" height="21.214285714285715" fill="none" />
<rect x="212.14285714285717" y="63.642857142857146" width="21.214285714285715" height="21.214285714285715" fill="black" />
<rect x="212.14285714285717" y="84.85714285714286" width="21.214285714285715" height="21.214285714285715" fill="none" />
<rect x="212.14285714285717" y="106.07142857142858" width="21.214285714285715" height="21.214285714285715" fill="black" />
<rect x="212.14285714285717" y="127.28571428571429" width="21.214285714285715" height="21.214285714285715" fill="none" />
<rect x="212.14285714285717" y="148.5" width="21.214285714285715" height="21.214285714285715" fill="black" />
<rect x="212.14285714285717" y="169.71428571428572" width="21.214285714285715" height="21.214285714285715" fill="none" />
<rect x="212.14285714285717" y="190.92857142857144" width="21.214285714285715" height="21.214285714285715" fill="black" />
<rect x="212.14285714285717" y="212.14285714285717" width="21.214285714285715" height="21.214285714285715" fill="none" />
<rect x="212.14285714285717" y="233.35714285714286" width="21.214285714285715" height="21.214285714285715" fill="black" />
<rect x="212.14285714285717" y="254.57142857142858" width="21.214285714285715" height="21.214285714285715" fill="none" />
<rect x="212.14285714285717" y="275.7857142857143" width="21.214285714285715" height="21.214285714285715" fill="black" />
<rect x="212.14285714285717" y="297.0" width="21.214285714285715" height="21.214285714285715" fill="none" />
<rect x="212.14285714285717" y="318.2142857142857" width="21.214285714285715" height="21.214285714285715" fill="black" />
<rect x="212.14285714285717" y="339.42857142857144" width="21.214285714285715" height="21.214285714285715" fill="none" />
<rect x="212.14285714285717" y="360.64285714285717" width="21.214285714285715" height="21.214285714285715" fill="black" />
<rect x="212.14285714285717" y="381.8571428571429" width="21.214285714285715" height="21.214285714285715" fill="none" />
<rect x="233.35714285714286" y="0.0" width="21.214285714285715" height="21.214285714285715" fill="black" />
<rect x="233.35714285714286" y="21.214285714285715" width="21.214285714285715" height="21.214285714285715" fill="none" />
<rect x="233.35714285714286" y="42.42857142857143" width="21.214285714285715" height="21.214285714285715" fill="black" />
<rect x="233.35714285714286" y="63.642857142857146" width="21.214285714285715" height="21.214285714285715" fill="none" />
<rect x="233.35714285714286" y="84.85714285714286" width="21.214285714285715" height="21.214285714285715" fill="black" />
<rect x="233.35714285714286" y="106.07142857142858" width="21.214285714285715" height="21.214285714285715" fill="none" />
<rect x="233.35714285714286" y="127.28571428571429" width="21.214285714285715" height="21.214285714285715" fill="black" />
<rect x="233.35714285714286" y="148.5" width="21.214285714285715" height="21.214285714285715" fill="none" />
<rect x="233.35714285714286" y="169.71428571428572" width="21.214285714285715" height="21.214285714285715" fill="black" />
<rect x="233.35714285714286" y="190.92857142857144" width="21.214285714285715" height="21.214285714285715" fill="none" />
<rect x="233.35714285714286" y="212.14285714285717" width="21.214285714285715" height="21.214285714285715" fill="black" />
<rect x="233.35714285714286" y="233.35714285714286" width="21.214285714285715" height="21.214285714285715" fill="none" />
<rect x="233.35714285714286" y="254.57142857142858" width="21.214285714285715" height="21.214285714285715" fill="black" />
<rect x="233.35714285714286" y="275.7857142857143" width="21.214285714285715" height="21.214285714285715" fill="none" />
<rect x="233.35714285714286" y="297.0" width="21.214285714285715" height="21.214285714285715" fill="black" />
<rect x="233.35714285714286" y="318.2142857142857" width="21.214285714285715" height="21.214285714285715" fill="none" />
<rect x="233.35714285714286" y="339.42857142857144" width="21.214285714285715" height="21.214285714285715" fill="black" />
<rect x="233.35714285714286" y="360.64285714285717" width="21.214285714285715" height="21.214285714285715" fill="none" />
<rect x="233.35714285714286" y="381.8571428571429" width="21.214285714285715" height="21.214285714285715" fill="black" />
<rect x="254.57142857142858" y="0.0" width="21.214285714285715" height="21.214285714285715" fill="none" />
<rect x="254.57142857142858" y="21.214285714285715" width="21.214285714285715" height="21.214285714285715" fill="black" />
<rect x="254.57142857142858" y="42.42857142857143" width="21.214285714285715" height="21.214285714285715" fill="none" />
<rect x="254.57142857142858" y="63.642857142857146" width="21.214285714285715" height="21.214285714285715" fill="black" />
<rect x="254.57142857142858" y="84.85714285714286" width="21.214285714285715" height="21.214285714285715" fill="none" />
<rect x="254.57142857142858" y="106.07142857142858" width="21.214285714285715" height="21.214285714285715" fill="black" />
<rect x="254.57142857142858" y="127.28571428571429" width="21.214285714285715" height="21.214285714285715" fill="none" />
<rect x="254.57142857142858" y="148.5" width="21.214285714285715" height="21.214285714285715" fill="black" />
<rect x="254.57142857142858" y="169.71428571428572" width="21.214285714285715" height="21.214285714285715" fill="none" />
<rect x="254.57142857142858" y="190.92857142857144" width="21.214285714285715" height="21.214285714285715" fill="black" />
<rect x="254.57142857142858" y="212.14285714285717" width="21.214285714285715" height="21.214285714285715" fill="none" />
<rect x="254.57142857142858" y="233.35714285714286" width="21.214285714285715" height="21.214285714285715" fill="black" />
<rect x="254.57142857142858" y="254.57142857142858" width="21.214285714285715" height="21.214285714285715" fill="none" />
<rect x="254.57142857142858" y="275.7857142857143" width="21.214285714285715" height="21.214285714285715" fill="black" />
<rect x="254.57142857142858" y="297.0" width="21.214285714285715" height="21.214285714285715" fill="none" />
<rect x="254.57142857142858" y="318.2142857142857" width="21.214285714285715" height="21.214285714285715" fill="black" />
<rect x="254.57142857142858" y="339.42857142857144" width="21.214285714285715" height="21.214285714285715" fill="none" />
<rect x="254.57142857142858" y="360.64285714285717" width="21.214285714285715" height="21.214285714285715" fill="black" />
<rect x="254.57142857142858" y="381.8571428571429" width="21.214285714285715" height="21.214285714285715" fill="none" />
<rect x="275.7857142857143" y="0.0" width="21.214285714285715" height="21.214285714285715" fill="black" />
<rect x="275.7857142857143" y="21.214285714285715" width="21.214285714285715" height="21.214285714285715" fill="none" />
<rect x="275.7857142857143" y="42.42857142857143" width="21.214285714285715" height="21.214285714285715" fill="black" />
<rect x="275.7857142857143" y="63.642857142857146" width="21.214285714285715" height="21.214285714285715" fill="none" />
<rect x="275.7857142857143" y="84.85714285714286" width="21.214285714285715" height="21.214285714285715" fill="black" />
<rect x="275.7857142857143" y="106.07142857142858" width="21.214285714285715" height="21.214285714285715" fill="none" />
<rect x="275.7857142857143" y="127.28571428571429" width="21.214285714285715" height="21.214285714285715" fill="black" />
<rect x="275.7857142857143" y="148.5" width="21.214285714285715" height="21.214285714285715" fill="none" />
<rect x="275.7857142857143" y="169.71428571428572" width="21.214285714285715" height="21.214285714285715" fill="black" />
<rect x="275.7857142857143" y="190.92857142857144" width="21.214285714285715" height="21.214285714285715" fill="none" />
<rect x="275.7857142857143" y="212.14285714285717" width="21.214285714285715" height="21.214285714285715" fill="black" />
<rect x="275.7857142857143" y="233.35714285714286" width="21.214285714285715" height="21.214285714285715" fill="none" />
<rect x="275.7857142857143" y="254.57142857142858" width="21.214285714285715" height="21.214285714285715" fill="black" />
<rect x="275.7857142857143" y="275.7857142857143" width="21.214285714285715" height="21.214285714285715" fill="none" />
<rect x="275.7857142857143" y="297.0" width="21.214285714285715" height="21.214285714285715" fill="black" />
<rect x="275.7857142857143" y="318.2142857142857" width="21.214285714285715" height="21.214285714285715" fill="none" />
<rect x="275.7857142857143" y="339.42857142857144" width="21.214285714285715" height="21.214285714285715" fill="black" />
<rect x="275.7857142857143" y="360.64285714285717" width="21.214285714285715" height="21.214285714285715" fill="none" />
<rect x="275.7857142857143" y="381.8571428571429" width="21.214285714285715" height="21.214285714285715" fill="black" />
</svg>